<svg version="1.0" xmlns="http://www.w3.org/2000/svg"  width="244.000000pt" height="151.000000pt" viewBox="0 0 204.000000 126.000000"  preserveAspectRatio="xMidYMid meet">
  <g transform="translate(0.000000,126.000000) scale(0.100000,-0.100000)" fill="#000000" stroke="none">
    <path d="M976 1114 c-108 -113 -93 -129 19 -23 70 67 77 71 93 56 9 -9 45 -43 80 -77 58 -55 89 -74 80 -51 -3 9 -179 193 -182 190 0 -1 -41 -44 -90 -95z"/>
    <path d="M629 969 l-135 -138 141 -141 141 -140 49 50 49 50 -27 27 -27 27 -22 -22 -23 -22 -86 86 -87 86 87 84 86 84 85 -85 84 -85 -31 -32 -31 -33 28 -27 27 -26 59 59 59 59 -140 140 c-77 77 -142 139 -145 138 -3 -1 -66 -63 -141 -139z"/>
    <path d="M1055 1100 c-23 -9 -115 -104 -115 -120 0 -21 18 -9 74 49 l56 60 47 -50 c49 -53 80 -75 91 -65 6 7 -93 112 -118 126 -8 4 -24 4 -35 0z"/>
    <path d="M1316 1061 l-48 -48 27 -27 27 -27 22 20 23 21 86 -83 86 -84 -87 -86 -87 -87 -49 50 c-45 46 -52 70 -21 70 20 0 45 28 45 50 0 26 -43 74 -61 68 -10 -4 -5 -13 18 -35 l32 -30 -35 -34 -34 -33 -32 32 -32 32 32 33 32 33 -28 27 -28 27 -59 -60 -59 -59 141 -140 140 -139 140 140 140 140 -141 139 c-78 76 -141 139 -141 139 -1 0 -22 -22 -49 -49z"/>
    <path d="M1325 921 c9 -18 22 -34 30 -37 8 -3 21 -17 30 -31 16 -24 15 -26 -26 -71 -61 -65 -30 -67 36 -2 l53 53 -60 56 c-73 67 -85 73 -63 32z"/>
    <path d="M748 886 l-56 -53 57 -57 c31 -31 60 -56 64 -56 18 0 3 29 -33 65 -22 21 -40 43 -40 48 0 4 13 20 29 35 30 29 57 72 44 72 -4 -1 -33 -25 -65 -54z"/>
    <path d="M816 868 c-22 -31 -20 -54 6 -78 38 -35 55 -24 19 14 l-32 33 25 17 c15 9 26 21 26 26 0 18 -29 10 -44 -12z"/>
    <path d="M939 683 c23 -42 113 -123 136 -123 19 0 125 108 125 128 0 10 -23 -6 -65 -48 l-65 -64 -63 62 c-62 62 -86 78 -68 45z"/>
    <path d="M890 648 c0 -8 41 -54 90 -103 l90 -90 90 90 c50 49 90 93 90 97 0 21 -28 2 -94 -62 -40 -38 -79 -70 -87 -70 -8 0 -44 30 -79 66 -72 72 -100 93 -100 72z"/>
    <path d="M329 339 c-9 -13 -24 -45 -34 -70 -15 -35 -23 -45 -37 -41 -26 6 -66 -23 -85 -63 -28 -59 7 -88 54 -43 20 19 23 19 23 4 0 -25 27 -31 55 -12 23 15 25 15 25 0 0 -27 19 -11 42 36 16 31 30 46 47 48 29 5 24 -19 -7 -33 -16 -7 -20 -15 -16 -30 8 -25 24 -45 36 -45 15 0 58 51 58 69 0 9 -9 2 -20 -16 -22 -37 -32 -40 -50 -18 -10 12 -7 19 16 38 35 30 28 60 -13 55 -20 -2 -34 -14 -50 -43 -24 -43 -30 -37 -12 13 6 18 26 47 45 66 24 24 34 43 34 65 0 33 -11 39 -28 18 -18 -21 -72 -135 -72 -150 0 -21 -39 -67 -57 -67 -20 0 -10 45 34 142 35 76 42 124 12 77z m-59 -131 c0 -20 -52 -88 -66 -88 -28 0 -5 68 30 92 17 12 36 9 36 -4z"/>
    <path d="M1676 240 c-2 -8 -9 -31 -16 -51 -14 -46 -51 -82 -81 -77 -36 5 -34 26 5 42 40 17 64 52 47 69 -19 19 -64 -5 -88 -48 -12 -22 -27 -46 -33 -53 -18 -20 -30 -4 -19 25 18 48 -7 69 -43 36 -17 -15 -18 -15 -18 10 0 34 -24 36 -57 5 -20 -19 -23 -19 -23 -4 0 27 -24 13 -30 -17 -6 -32 -37 -70 -50 -62 -6 3 -5 16 1 32 18 48 -7 69 -43 36 -17 -15 -18 -15 -18 10 0 34 -24 36 -57 5 -20 -19 -23 -19 -23 -4 0 27 -25 13 -28 -17 -4 -30 -35 -45 -57 -27 -20 16 -19 44 2 61 15 13 16 11 10 -23 -7 -44 -1 -49 13 -13 13 34 2 57 -24 53 -18 -3 -21 -10 -21 -48 -1 -46 -9 -70 -26 -70 -12 0 -11 37 2 62 9 16 8 19 -2 16 -7 -2 -20 -18 -29 -34 -18 -32 -55 -55 -76 -47 -21 8 -17 47 7 77 24 31 43 34 34 6 -4 -12 -2 -20 5 -20 19 0 23 31 6 48 -15 15 -18 14 -43 -4 -34 -25 -48 -62 -39 -98 8 -33 50 -36 83 -4 20 18 23 19 23 5 0 -21 42 -23 59 -3 6 8 23 16 37 19 20 4 23 1 19 -14 -10 -29 13 -22 29 9 19 37 62 76 70 63 4 -5 0 -27 -9 -47 -18 -45 -18 -44 0 -44 8 0 15 5 15 11 0 16 40 69 51 69 5 0 9 -17 7 -37 -3 -37 -2 -38 35 -40 29 -1 40 4 48 20 16 32 61 77 70 72 7 -5 0 -37 -16 -77 -5 -13 -2 -18 9 -18 9 0 16 5 16 11 0 16 40 69 52 69 6 0 8 -13 4 -35 -6 -28 -3 -37 10 -42 9 -3 25 -1 34 5 14 9 21 8 30 -3 28 -34 96 1 124 64 24 51 44 41 26 -13 -6 -20 -9 -40 -5 -46 9 -15 36 -12 56 6 16 14 18 14 29 -5 12 -24 47 -27 76 -7 16 13 21 12 36 -1 11 -10 26 -13 43 -9 29 7 75 48 75 66 0 6 -12 -3 -26 -20 -20 -23 -34 -30 -53 -28 -36 4 -33 25 8 46 43 21 60 47 43 64 -21 21 -63 -3 -92 -52 -31 -54 -68 -76 -89 -56 -11 12 -11 20 5 53 21 43 57 60 47 22 -4 -15 -3 -20 5 -15 16 10 15 43 0 49 -23 7 -57 -15 -73 -49 -16 -34 -53 -67 -66 -59 -4 3 -2 18 4 34 10 28 9 34 -18 81 -10 18 -15 20 -19 10z m-56 -30 c0 -13 -37 -50 -50 -50 -16 0 -12 12 12 37 23 24 38 30 38 13z m340 -5 c0 -17 -47 -51 -57 -41 -7 7 36 56 49 56 4 0 8 -7 8 -15z"/>
    <path d="M591 195 c-17 -20 -31 -47 -31 -60 0 -24 25 -45 54 -45 18 0 76 48 76 63 0 6 -13 -1 -28 -16 -30 -28 -67 -36 -75 -14 -9 25 32 97 55 97 18 0 6 -29 -19 -49 -19 -14 -23 -20 -12 -21 22 0 59 37 59 60 0 34 -44 25 -79 -15z"/>
    <path d="M725 170 c-14 -6 -4 -9 38 -9 32 -1 57 3 57 9 0 12 -67 12 -95 0z"/>
  </g>
</svg>
